Coordinates
version=1
nRows=17
nColumns=63
inDegrees=yes

Units are S.I. units (second, meters, Newtons, ...)
If the header above contains a line with 'inDegrees', this indicates whether rotational values are in degrees (yes) or radians (no).

endheader
time	pelvis_tilt	pelvis_list	pelvis_rotation	pelvis_tx	pelvis_ty	pelvis_tz	hip_flexion_r	hip_adduction_r	hip_rotation_r	knee_angle_r	knee_angle_r_beta	ankle_angle_r	subtalar_angle_r	mtp_angle_r	hip_flexion_l	hip_adduction_l	hip_rotation_l	knee_angle_l	knee_angle_l_beta	ankle_angle_l	subtalar_angle_l	mtp_angle_l	L5_S1_Flex_Ext	L5_S1_Lat_Bending	L5_S1_axial_rotation	L4_L5_Flex_Ext	L4_L5_Lat_Bending	L4_L5_axial_rotation	L3_L4_Flex_Ext	L3_L4_Lat_Bending	L3_L4_axial_rotation	L2_L3_Flex_Ext	L2_L3_Lat_Bending	L2_L3_axial_rotation	L1_L2_Flex_Ext	L1_L2_Lat_Bending	L1_L2_axial_rotation	L1_T12_Flex_Ext	L1_T12_Lat_Bending	L1_T12_axial_rotation	Abs_r3	Abs_r2	Abs_r1	Abs_t1	Abs_t2	neck_flexion	neck_bending	neck_rotation	arm_flex_r	arm_add_r	arm_rot_r	elbow_flex_r	pro_sup_r	wrist_flex_r	wrist_dev_r	arm_flex_l	arm_add_l	arm_rot_l	elbow_flex_l	pro_sup_l	wrist_flex_l	wrist_dev_l
2.559322	13.985867	-23.935972	113.744820	0.299436	0.947726	0.472407	46.855136	6.061808	-1.077700	31.908616	0.556910	33.101489	-17.049223	0.000000	42.768193	-10.047217	-10.297926	33.216041	0.579729	29.494735	12.614857	0.000000	0.010215	-0.686673	4.671962	0.018969	-0.913275	4.963960	0.016781	-1.669577	4.963960	0.011674	-1.669577	4.087967	0.009485	-1.400264	3.795969	0.005837	-1.063657	3.503972	0.072961	-7.767784	25.984052	0.000000	0.000000	19.973781	-1.034562	-35.846499	20.481676	-14.336437	1.560870	90.670742	87.969341	-13.950696	9.975380	-25.228883	-18.404866	75.300859	99.578405	63.522951	-9.720308	16.485687
2.576271	13.962253	-23.799858	113.722668	0.300368	0.948239	0.469914	46.197541	6.198566	-1.425516	31.289968	0.546113	32.654254	-17.009028	0.000000	43.288296	-10.478684	-10.003922	34.625990	0.604338	29.259786	13.194700	0.000000	0.015444	-0.656105	4.643142	0.028682	-0.872620	4.933339	0.025374	-1.595253	4.933339	0.017651	-1.595253	4.062749	0.014342	-1.337929	3.772553	0.008825	-1.016306	3.482357	0.110318	-7.421990	25.823764	0.000000	0.000000	20.144218	-1.219391	-35.892388	20.355941	-14.046380	1.104999	92.918428	87.969967	-11.753291	12.244143	-25.426309	-17.171408	75.063779	99.676576	65.619325	-9.992561	16.916125
2.593220	13.852398	-23.691894	113.634768	0.301128	0.949071	0.467572	45.466100	6.266801	-1.753537	30.522370	0.532716	32.169162	-16.970214	0.000000	43.697448	-10.810848	-9.750768	35.766395	0.624241	29.012350	13.887764	0.000000	0.018965	-0.634087	4.620292	0.035220	-0.843335	4.909060	0.031158	-1.541718	4.909060	0.021675	-1.541718	4.042755	0.017611	-1.293029	3.753987	0.010837	-0.982200	3.465219	0.135467	-7.172914	25.696675	0.000000	0.000000	20.315996	-1.321777	-36.162921	20.260207	-13.783472	0.663429	95.194643	87.995997	-9.516976	14.255990	-25.614125	-16.409468	74.808712	100.087630	68.651496	-10.027842	16.805260
2.610169	13.658081	-23.605104	113.468873	0.301684	0.950210	0.465463	44.663489	6.276797	-2.046432	29.602366	0.516659	31.676376	-16.934209	0.000000	43.983403	-11.049420	-9.574751	36.626216	0.639248	28.740044	14.647452	0.000000	0.019972	-0.620216	4.613519	0.037090	-0.824888	4.901864	0.032812	-1.507994	4.901864	0.022826	-1.507994	4.036830	0.018546	-1.264745	3.748485	0.011412	-0.960715	3.460140	0.142659	-7.016010	25.659011	0.000000	0.000000	20.471965	-1.325575	-36.635905	20.186543	-13.581183	0.202074	97.387030	88.045422	-7.242543	15.981354	-25.674801	-16.190437	74.738872	100.783500	72.555944	-10.148829	15.804200
2.627119	13.388440	-23.540582	113.235991	0.301979	0.951617	0.463634	43.796795	6.230230	-2.320343	28.530034	0.497943	31.192773	-16.883592	0.000000	44.148363	-11.184298	-9.473980	37.206865	0.649382	28.428231	15.367059	0.000000	0.018765	-0.613950	4.621068	0.034849	-0.816553	4.909885	0.030830	-1.492758	4.909885	0.021447	-1.492758	4.043435	0.017425	-1.251966	3.754618	0.010722	-0.951008	3.465801	0.134039	-6.945123	25.700994	0.000000	0.000000	20.600654	-1.221167	-37.269153	20.141584	-13.447615	-0.258833	99.395958	88.103070	-5.064651	17.404328	-25.661983	-16.586985	74.816372	101.676500	77.049021	-10.395416	13.824066
2.644068	13.067552	-23.500742	112.930607	0.301957	0.953249	0.462095	42.876303	6.151984	-2.582098	27.308653	0.476626	30.701024	-16.814107	0.000000	44.195574	-11.233194	-9.461734	37.512973	0.654725	28.079028	15.980006	0.000000	0.016447	-0.612119	4.640583	0.030544	-0.814119	4.930619	0.027021	-1.488307	4.930619	0.018797	-1.488307	4.060510	0.015273	-1.248234	3.770474	0.009398	-0.948173	3.480437	0.117480	-6.924417	25.809530	0.000000	0.000000	20.702128	-1.033112	-37.995989	20.139545	-13.392253	-0.673549	101.149537	88.156753	-3.085999	18.539112	-25.741285	-17.580066	74.777171	102.545454	81.771507	-10.236939	11.056381
2.661017	12.667045	-23.510226	112.568021	0.301551	0.955032	0.460828	41.932640	5.986278	-2.847101	25.984220	0.453510	30.235041	-16.693632	0.000000	44.135994	-11.130568	-9.485067	37.546965	0.655318	27.670352	16.318206	0.000000	0.012415	-0.618881	4.665260	0.023055	-0.823112	4.956839	0.020396	-1.504748	4.956839	0.014189	-1.504748	4.082102	0.011528	-1.262023	3.790524	0.007094	-0.958647	3.498945	0.088676	-7.000911	25.946776	0.000000	0.000000	20.797157	-0.786474	-38.812233	20.167570	-13.370197	-1.050484	102.627575	88.176914	-1.470980	19.495835	-26.011409	-19.161826	74.647495	103.276821	82.053431	-9.456906	7.564958
2.677966	12.209218	-23.571521	112.161076	0.300716	0.956884	0.459806	40.987168	5.741210	-3.136236	24.590971	0.429193	29.791252	-16.514382	0.000000	43.980021	-10.888445	-9.541354	37.322405	0.651399	27.240037	16.385834	0.000000	0.008401	-0.631463	4.690966	0.015602	-0.839846	4.984151	0.013802	-1.535340	4.984151	0.009602	-1.535340	4.104595	0.007801	-1.287680	3.811410	0.004800	-0.978137	3.518225	0.060010	-7.143240	26.089746	0.000000	0.000000	20.886538	-0.534736	-39.668785	20.213900	-13.361304	-1.378644	103.776176	88.148525	-0.226769	20.207726	-26.477583	-21.213731	74.024985	103.423344	82.789285	-7.599947	3.797880
2.694915	11.689038	-23.687703	111.694640	0.299465	0.958723	0.458985	40.069091	5.415702	-3.421963	23.185545	0.404664	29.375120	-16.291225	0.000000	43.724865	-10.513996	-9.665601	36.848270	0.643124	26.833881	16.226106	0.000000	0.004252	-0.650755	4.718769	0.007897	-0.865504	5.013692	0.006986	-1.582245	5.013692	0.004860	-1.582245	4.128923	0.003949	-1.327019	3.834000	0.002430	-1.008019	3.539077	0.030374	-7.361466	26.244377	0.000000	0.000000	20.981521	-0.319039	-40.538458	20.261417	-13.334735	-1.655585	104.569144	88.072368	0.578129	20.666360	-27.105545	-23.673569	72.951816	102.816052	83.875115	-4.693672	-0.027474
2.711864	11.127020	-23.844616	111.179090	0.297787	0.960478	0.458318	39.193578	5.028408	-3.697415	21.816008	0.380761	29.008639	-16.029552	0.000000	43.370579	-10.028441	-9.839377	36.147149	0.630887	26.492652	15.877051	0.000000	0.000680	-0.674064	4.746617	0.001263	-0.896505	5.043280	0.001118	-1.638918	5.043280	0.000777	-1.638918	4.153289	0.000632	-1.374551	3.856626	0.000389	-1.044125	3.559962	0.004859	-7.625143	26.399257	0.000000	0.000000	21.075354	-0.165139	-41.367239	20.295839	-13.272175	-1.880050	104.974842	87.918463	0.955778	20.881378	-27.849956	-26.413567	71.534594	101.278451	84.839847	-1.005415	-3.960740
2.728814	10.538558	-24.019785	110.641872	0.295673	0.962077	0.457781	38.371361	4.585012	-3.963026	20.541294	0.358513	28.701150	-15.730322	0.000000	42.916214	-9.444285	-10.034791	35.254833	0.615313	26.246845	15.379951	0.000000	-0.003388	-0.699074	4.764241	-0.006291	-0.929769	5.062006	-0.005565	-1.699730	5.062006	-0.003872	-1.699730	4.168711	-0.003146	-1.425553	3.870946	-0.001936	-1.082866	3.573181	-0.024197	-7.908069	26.497279	0.000000	0.000000	21.175383	-0.062392	-42.056377	20.332375	-13.158614	-2.029410	104.958556	87.678250	1.022157	20.902130	-28.684462	-29.285256	69.879754	98.711624	85.760734	3.056414	-7.974665
2.745763	9.893756	-24.213567	110.097025	0.293109	0.963484	0.457355	37.627068	4.048235	-4.210769	19.440266	0.339297	28.479272	-15.365944	0.000000	42.349452	-8.714380	-10.193045	34.178513	0.596528	26.044501	14.653274	0.000000	-0.008675	-0.730015	4.767677	-0.016110	-0.970920	5.065657	-0.014252	-1.774958	5.065657	-0.009915	-1.774958	4.171717	-0.008056	-1.488646	3.873738	-0.004957	-1.130793	3.575758	-0.061965	-8.258073	26.516389	0.000000	0.000000	21.225370	0.013635	-42.614461	20.371675	-13.007704	-2.050998	104.444691	87.410662	0.728201	20.435336	-29.569634	-32.131092	67.924123	95.031820	86.342296	7.835101	-11.765745
2.762712	9.311068	-24.355732	109.575913	0.290134	0.964619	0.456978	36.955204	3.534932	-4.456589	18.538666	0.323561	28.329251	-14.986522	0.000000	41.701350	-7.988195	-10.311290	33.016288	0.576243	25.958186	13.857373	0.000000	-0.014269	-0.750883	4.764904	-0.026498	-0.998674	5.062710	-0.023442	-1.825696	5.062710	-0.016308	-1.825696	4.169291	-0.013250	-1.531200	3.871484	-0.008153	-1.163117	3.573678	-0.101919	-8.494136	26.500966	0.000000	0.000000	21.252856	0.027678	-43.003179	20.369425	-12.849654	-2.126837	103.638141	87.117271	0.588914	20.348723	-30.410862	-34.917268	66.091642	90.428589	87.112081	12.697338	-15.551059
2.779661	8.729073	-24.473029	109.095919	0.286741	0.965459	0.456649	36.391614	2.972324	-4.663764	17.919407	0.312753	28.270469	-14.566682	0.000000	40.967683	-7.183210	-10.350563	31.777109	0.554615	25.949202	12.912885	0.000000	-0.020746	-0.769235	4.744525	-0.038527	-1.023082	5.041058	-0.034083	-1.870317	5.041058	-0.023710	-1.870317	4.151459	-0.019265	-1.568623	3.854926	-0.011854	-1.191545	3.558394	-0.148185	-8.701737	26.387624	0.000000	0.000000	21.211857	0.027922	-43.189311	20.355730	-12.720571	-2.068659	102.414612	86.853876	0.276672	19.901735	-31.295630	-37.487348	64.030020	85.099161	87.657573	18.157210	-18.733467
2.796610	8.234847	-24.534992	108.734865	0.282901	0.965942	0.456364	35.939404	2.403844	-4.897880	17.584979	0.306916	28.301266	-14.112250	0.000000	40.202649	-6.366380	-10.242861	30.542422	0.533066	26.043903	11.860676	0.000000	-0.026045	-0.773753	4.698504	-0.048368	-1.029091	4.992161	-0.042789	-1.881302	4.992161	-0.029766	-1.881302	4.111191	-0.024185	-1.577836	3.817535	-0.014882	-1.198543	3.523878	-0.186035	-8.752845	26.131671	0.000000	0.000000	21.122875	-0.028410	-43.182185	20.333244	-12.630409	-2.003065	100.958440	86.644453	0.313650	19.821030	-32.289094	-39.681907	61.667304	79.352573	88.205666	24.060858	-21.054432
2.813559	7.817939	-24.536049	108.466175	0.278704	0.966119	0.456008	35.596551	1.848055	-5.104871	17.557049	0.306428	28.415079	-13.634352	0.000000	39.381911	-5.560793	-10.042905	29.310708	0.511568	26.254555	10.757874	0.000000	-0.031794	-0.764939	4.630326	-0.059045	-1.017369	4.919721	-0.052235	-1.859873	4.919721	-0.036338	-1.859873	4.051535	-0.029524	-1.559864	3.762140	-0.018167	-1.184891	3.472745	-0.227104	-8.653146	25.752484	0.000000	0.000000	20.995892	-0.121150	-42.969106	20.286621	-12.614222	-1.776609	99.242498	86.488528	0.311031	19.449796	-33.304164	-41.426561	59.289703	73.424324	88.569825	30.187117	-22.696918
2.830508	7.508160	-24.467576	108.341018	0.274135	0.965986	0.455566	35.369485	1.302251	-5.333641	17.845456	0.311462	28.629624	-13.127689	0.000000	38.544552	-4.777813	-9.695194	28.138581	0.491111	26.587448	9.620551	0.000000	-0.037476	-0.738566	4.532642	-0.069597	-0.982293	4.815932	-0.061569	-1.795750	4.815932	-0.042831	-1.795750	3.966062	-0.034800	-1.506085	3.682771	-0.021414	-1.144039	3.399481	-0.267687	-8.354810	25.209194	0.000000	0.000000	20.828781	-0.336133	-42.596613	20.209640	-12.682716	-1.391917	97.433990	86.388357	0.319450	19.146533	-34.401019	-42.560585	56.817598	67.582627	88.765717	36.308095	-23.579261
